<svg xmlns="http://www.w3.org/2000/svg" viewBox="0 0 743.61 184.06"><defs><style>.cls-1{font-size:126px;font-family:Calleo-ExtraBold, Calleo;font-weight:800;}.cls-1,.cls-5{fill:#ebebec;}.cls-2{font-family:Calleo-Light, Calleo;font-weight:300;}.cls-3,.cls-4{font-family:TearsOfJoy, Tears Of Joy;font-weight:400;}.cls-4{letter-spacing:0em;}.cls-6{fill:#202020;}</style></defs><g id="Calque_2" data-name="Calque 2"><g id="Calque_1-2" data-name="Calque 1"><text class="cls-1" transform="translate(96.6 146.89)">L<tspan class="cls-2" x="58.21" y="0">i</tspan><tspan class="cls-3" x="84.8" y="0">a</tspan><tspan class="cls-2" x="160.4" y="0">m</tspan><tspan x="237.25" y="0" xml:space="preserve"> J</tspan><tspan class="cls-2" x="348.76" y="0">eg</tspan><tspan class="cls-4" x="492.65" y="0">o</tspan><tspan class="cls-2" x="586.77" y="0">u</tspan></text><circle class="cls-5" cx="35.35" cy="101.35" r="35.35"/><path class="cls-5" d="M70.69,101.35V172h-.92C31.41,171.53,0,139.82,0,101.35S31.41,31.17,69.77,30.67c-.59,0-1.19,0-1.78.09l-.87.07q-1.32.14-2.61.36L64,31.3l-.56.11-.68.15-.82.2-.75.2-.67.2-.19.05-.47.15-.58.2-.69.24-.7.26-.46.19-.33.14c-.24.09-.48.2-.71.3l-.5.23-.44.21-.11,0-.64.32-.66.34-.42.24a2.82,2.82,0,0,0-.38.21l-.65.38L52,36l-.12.08-.52.33-.22.15-.43.29-.32.23-.29.2c-.13.09-.26.18-.38.28l-.36.27-.28.21-.54.43,0,0L48,39a2.11,2.11,0,0,0-.23.19l-.36.32-.24.2-.52.48h0l-.6.57-.53.53-.13.14c-.14.14-.28.28-.41.43l-.18.19-.48.52c-.18.21-.37.42-.54.63l-.54.65-.51.65-.51.67c-.14.2-.29.4-.43.61a1.43,1.43,0,0,0-.14.2l-.38.55a.08.08,0,0,1,0,0l-.41.63-.11.18c-.1.15-.19.31-.28.46s-.15.25-.22.37l-.23.39-.12.22c-.11.19-.22.39-.32.59l0,.09-.3.58-.15.3c-.09.17-.17.34-.25.52a.75.75,0,0,0-.06.13l-.3.63-.06.15c-.1.22-.19.44-.28.65,0,0,0,.06,0,.09-.1.24-.19.48-.28.72s-.2.5-.29.76-.17.48-.25.73-.13.37-.19.55,0,.18-.08.27-.09.28-.13.42-.1.34-.14.5,0,0,0,.06c-.07.24-.13.49-.19.74s-.18.71-.25,1.06-.1.44-.14.66A.14.14,0,0,0,36,59l-.15.8c-.05.28-.09.56-.14.85-.14.91-.24,1.83-.3,2.77,0,.25,0,.5,0,.75,0,.59,0,1.19,0,1.79A35.35,35.35,0,0,0,70.69,101.35Z"/><circle class="cls-6" cx="35.35" cy="35.35" r="35.35"/><circle class="cls-6" cx="363.63" cy="101.35" r="15.08"/></g></g></svg>